# xmcd
#
# Track frame offsets:
#	150
#	13250
#	23572
#	38215
#	54377
#	66970
#	83672
#	98657
#	115412
#	131510
#	143845
#	156797
#	178097
#	197375
#
# Disc length: 2841
#
# Revision: 3
# Processed by: cddbd v1.5.1PL0 Copyright (c) Steve Scherf et al.
# Submitted via: dBpowerAMP V4.0
# Normalized: r2:TRMNUM
#
DISCID=b30b170e
DTITLE=Chitãozinho e Chororó - Bis 2 CD's Disco 1
DYEAR=2000
DGENRE=Country
TTITLE0=Fio de cabelo
TTITLE1=60 dias apaixonado
TTITLE2=Vem provar de mim
TTITLE3=Faz um Ano
TTITLE4=Pago dobrado
TTITLE5=Fogão de lenha
TTITLE6=Pé na estrada
TTITLE7=Ela chora chora
TTITLE8=Coração quebrado
TTITLE9=Amante amada
TTITLE10=Somos apaixonados
TTITLE11=Falando às paredes
TTITLE12=A mais bonita das noites
TTITLE13=Pés descalços
EXTD=
EXTT0=
EXTT1=
EXTT2=
EXTT3=
EXTT4=
EXTT5=
EXTT6=
EXTT7=
EXTT8=
EXTT9=
EXTT10=
EXTT11=
EXTT12=
EXTT13=
PLAYORDER=
